<?xml version="1.0" encoding="utf-8"?>
<!-- Generator: Adobe Illustrator 16.0.0, SVG Export Plug-In . SVG Version: 6.00 Build 0)  -->
<!DOCTYPE svg PUBLIC "-//W3C//DTD SVG 1.1//EN" "http://www.w3.org/Graphics/SVG/1.1/DTD/svg11.dtd">
<svg version="1.1" id="Layer_1" xmlns="http://www.w3.org/2000/svg" xmlns:xlink="http://www.w3.org/1999/xlink" x="0px" y="0px"
	 width="300px" height="83px" viewBox="0 0 300 83" enable-background="new 0 0 300 83" xml:space="preserve">
<g>
	<g>
		<path fill="#282F44" d="M58.235,29.532c-2.779-11.214-13.498-15.284-22.33-15.284c-13.597,0-24.116,10.619-24.116,25.208
			c0,14.688,10.52,25.505,24.116,25.505c8.535,0,17.666-3.97,21.834-14.092H32.034V40.845H69.45
			c-0.496,5.856-0.993,9.726-1.886,12.009v-0.099C62.8,66.054,48.509,74.589,35.905,74.589c-19.452,0-34.14-14.688-34.14-35.132
			c0-20.544,14.985-35.232,34.14-35.232c13.298,0,29.376,6.848,33.049,25.308H58.235z"/>
		<path fill="#282F44" d="M112.229,53.647h-24.91C84.64,60,81.166,68.336,78.983,74.093H68.165L96.053,3.728h7.344l27.889,70.365
			h-10.719L112.229,53.647z M91.091,44.22h17.268l-8.536-24.513L91.091,44.22z"/>
		<path fill="#282F44" d="M141.611,74.391v-60.44h-21.04V4.622h52.005v9.329h-20.941v60.44H141.611z"/>
		<path fill="#282F44" d="M259.923,38.861h11.71c8.436,0,12.604-6.054,12.604-12.108c0-5.955-4.169-12.009-12.604-12.009H256.25
			v59.349h-9.924V4.622h25.307c15.085,0,22.628,11.115,22.628,22.131c0,9.826-6.054,19.154-17.963,21.237l21.934,26.103h-13.002
			l-25.307-30.468V38.861z"/>
	</g>
	<g>
		<path fill="#ECECEC" d="M208.488,72.798c-10.891-2.257-18.922-9.862-20.413-18.364l-0.118-0.653
			c-0.679-2.418,0.008-4.038,2.329-5.678c2.298,1.685,5.357,1.063,7.44-0.938c2.212-2.124,7.5-3.819,4.796-5.845
			c-1.745-1.303-5.304-1.655-6.68-1.811c0.354-0.238,0.786-0.502,1.484-1.048c2.251-1.772,5.06-4.301,7.05-7.558
			c1.212,0.618,2.668,1.393,3.172,1.807c0.922,0.753,0.095,1.511,0.875,3.687c0.779,2.175,3.96,2.986,5.368-2.109
			c1.409-5.098,2.288,0.335,3.769-4.6c1.481-4.933-2.32-2.36-3.165-1.208c-0.841,1.155-2.165,4.619-2.686,3.172
			c-0.521-1.443-0.527-2.386-0.903-3.737c-0.238-0.857-0.27-2.443-0.262-3.489c0.233-0.106,0.449-0.186,0.646-0.24
			c1.066-0.301,2.771-1.309,4.772-1.499c5.33,0.99,14.123,2.632,15.027,2.858c1.313,0.331,1.936-0.633,1.617-1.15
			c-0.317-0.519-1.03-0.654-1.03-0.654s-0.039-0.011-0.102-0.029c0.02-0.137,0.038-0.275,0.046-0.399
			c0.023-0.319-0.866-0.445-0.986-0.322c-0.053,0.054-0.112,0.225-0.165,0.403c-0.331-0.091-0.71-0.189-1.108-0.287
			c0.03-0.178,0.058-0.375,0.07-0.546c0.021-0.317-0.864-0.444-0.987-0.32c-0.073,0.076-0.166,0.386-0.225,0.617
			c-0.023-0.005-0.049-0.011-0.073-0.015c-0.31-0.059-0.578-0.118-0.827-0.18c0.037-0.207,0.081-0.465,0.091-0.682
			c0.021-0.316-0.865-0.442-0.985-0.322c-0.08,0.084-0.179,0.439-0.234,0.674c-0.319-0.108-0.612-0.215-0.917-0.318
			c0.027-0.159,0.051-0.328,0.059-0.476c0.022-0.318-0.863-0.443-0.988-0.322c-0.058,0.059-0.123,0.258-0.175,0.453
			c-0.376-0.112-0.713-0.202-1.02-0.269c0.015-0.091,0.023-0.182,0.028-0.266c0.022-0.319-0.866-0.444-0.986-0.322
			c-0.058,0.058-0.123,0.254-0.179,0.448c-0.285-0.044-0.642-0.12-1.012-0.201c-0.004-0.146-0.013-0.314-0.034-0.456
			c-0.037-0.234-0.933-0.258-1.028-0.159c-0.05,0.052-0.078,0.223-0.095,0.38c-0.128-0.02-0.243-0.034-0.342-0.042
			c-0.56-0.038-0.918,0.155-1.065-0.676c-0.114-0.641,0.936-0.76,1.7-0.73c-0.047,0.163-0.092,0.354-0.059,0.425
			c0.053,0.126,0.899,0.4,1.019,0.194c0.105-0.177,0.201-0.412,0.26-0.563c0.304-0.027,0.659-0.073,1.032-0.116
			c-0.025,0.219-0.043,0.472-0.007,0.553c0.067,0.157,0.944,0.333,1.042,0.026c0.064-0.204,0.119-0.455,0.162-0.659
			c0.164,0,0.324,0.01,0.477,0.029c0.161,0.021,0.355,0.024,0.556,0.017c-0.026,0.23-0.05,0.505-0.011,0.593
			c0.067,0.154,0.944,0.333,1.042,0.026c0.073-0.229,0.138-0.523,0.181-0.738c0.34-0.051,0.681-0.109,1.007-0.168
			c-0.023,0.202-0.034,0.417-0.002,0.49c0.069,0.158,0.946,0.333,1.043,0.027c0.072-0.225,0.135-0.513,0.178-0.726
			c0.095-0.013,0.194-0.028,0.269-0.033c0.316-0.025,0.499-0.027,0.682-0.027c-0.023,0.22-0.043,0.472-0.007,0.553
			c0.067,0.16,0.944,0.333,1.044,0.029c0.059-0.189,0.109-0.417,0.15-0.613c0.123-0.007,0.25-0.016,0.403-0.026
			c0.276-0.021,0.517-0.018,0.751-0.01c-0.033,0.237-0.06,0.552-0.022,0.646c0.07,0.154,0.944,0.332,1.045,0.027
			c0.059-0.184,0.108-0.408,0.151-0.602c0.551,0.023,1.104-0.021,1.843-0.33c1.511-0.63,1.573-0.667,1.374-1.248
			c-0.198-0.581-0.397-0.239-1.237-1.099c-0.964-0.992-2.144-0.381-2.847-0.184c-0.423,0.12-1.457,0.013-3.544-0.154
			c-2.086-0.165-2.943-0.217-4.827-0.965c-1.364-0.542-3.57-3.627-6.928-3.805c-1.499-0.078-3.773,0.979-5.832,2.173
			c-0.55,0.105-1.042,0.201-1.351,0.267c-0.698-0.565-1.447-1.223-1.83-1.737c-0.841-1.122-1.582-1.7-2.407-2.997
			c-0.827-1.297,2.725-0.226,4.153-0.187c1.43,0.039,5.791-1.395,0.978-3.24c-4.813-1.845-1.049,2.171-5.941,0.17
			c-4.899-2-6.201,1.01-4.954,2.957c1.245,1.947,2.351,1.755,2.386,2.945c0.015,0.485-0.135,1.51-0.315,2.552
			c-0.378,0.025-0.757,0.072-1.154,0.146c-3.193,0.608-15.767,0.454-19.985,17.126c-0.155,0.612-0.305,1.197-0.448,1.769
			c0,0-1.716-1.67-6.344-3.502c-3.142-1.243-1.224,5.22-0.556,8.213c0.551,2.458,2.301,4.452,4.63,4.833
			c-0.747,6.186-0.86,4.981-0.066,9.942c0.695,4.332,3.238,14.623,13.553,21.273c9.839,6.347,21.103,5.032,28.938,1.636
			c4.602-1.994,7.967-4.179,10.793-6.929C225.056,72.654,216.928,74.545,208.488,72.798z M217.012,13.931
			c1.411,0.424,1.141,0.501,1.54,0.748c0.401,0.249,0.136,1.159-0.449,1.033s-1.644,0.119-2.759-0.636c0,0,0.002-0.02,0.011-0.054
			C215.415,14.746,215.757,13.553,217.012,13.931z"/>
	</g>
</g>
</svg>
