<?xml version="1.0" encoding="utf-8"?>
<!-- Generator: Adobe Illustrator 16.0.0, SVG Export Plug-In . SVG Version: 6.00 Build 0)  -->
<!DOCTYPE svg PUBLIC "-//W3C//DTD SVG 1.1//EN" "http://www.w3.org/Graphics/SVG/1.1/DTD/svg11.dtd">
<svg version="1.1" id="Layer_1" xmlns="http://www.w3.org/2000/svg" xmlns:xlink="http://www.w3.org/1999/xlink" x="0px" y="0px"
	 width="700px" height="200px" viewBox="0 0 700 200" enable-background="new 0 0 700 200" xml:space="preserve">
<g>
	<g>
		<path fill="#282F44" d="M142.281,73.956c-6.292-25.391-30.56-34.604-50.559-34.604c-30.784,0-54.604,24.042-54.604,57.074
			c0,33.256,23.82,57.75,54.604,57.75c19.324,0,39.997-8.987,49.435-31.907H82.958V99.573h84.715
			c-1.124,13.26-2.248,22.021-4.271,27.192v-0.227c-10.785,30.109-43.144,49.433-71.68,49.433
			c-44.043,0-77.299-33.255-77.299-79.544c0-46.514,33.931-79.771,77.299-79.771c30.109,0,66.511,15.505,74.827,57.301H142.281z"/>
		<path fill="#282F44" d="M264.532,128.558h-56.399c-6.068,14.382-13.935,33.258-18.877,46.291h-24.491l63.143-159.316h16.626
			l63.143,159.316h-24.268L264.532,128.558z M216.67,107.212h39.1L236.441,51.71L216.67,107.212z"/>
		<path fill="#282F44" d="M331.058,175.524V38.678h-47.637V17.556H401.17v21.122h-47.415v136.846H331.058z"/>
		<path fill="#282F44" d="M598.935,95.079h26.514c19.1,0,28.536-13.707,28.536-27.415c0-13.482-9.437-27.189-28.536-27.189H590.62
			v134.374h-22.471V17.556h57.299c34.153,0,51.234,25.166,51.234,50.108c0,22.247-13.709,43.368-40.673,48.086l49.66,59.098h-29.437
			l-57.299-68.983V95.079z"/>
	</g>
	<g>
		<path fill="#E6AF2D" d="M482.479,171.917c-24.66-5.109-42.844-22.329-46.22-41.576l-0.267-1.481
			c-1.538-5.473,0.015-9.142,5.272-12.857c5.2,3.816,12.129,2.408,16.848-2.119c5.008-4.812,16.981-8.65,10.856-13.235
			c-3.951-2.951-12.008-3.748-15.124-4.1c0.804-0.539,1.78-1.137,3.362-2.373c5.096-4.012,11.455-9.737,15.961-17.112
			c2.745,1.398,6.038,3.153,7.183,4.092c2.088,1.704,0.214,3.421,1.98,8.348c1.766,4.927,8.967,6.759,12.153-4.775
			c3.191-11.541,5.181,0.759,8.534-10.414c3.354-11.168-5.252-5.345-7.165-2.734c-1.905,2.615-4.902,10.458-6.081,7.182
			c-1.184-3.268-1.196-5.402-2.046-8.46c-0.54-1.942-0.609-5.532-0.594-7.9c0.53-0.238,1.018-0.421,1.465-0.543
			c2.413-0.68,6.274-2.962,10.806-3.395c12.067,2.242,31.977,5.96,34.024,6.474c2.971,0.748,4.384-1.435,3.66-2.605
			c-0.717-1.174-2.333-1.481-2.333-1.481s-0.087-0.024-0.229-0.065c0.043-0.309,0.085-0.623,0.104-0.904
			c0.053-0.723-1.962-1.008-2.233-0.73c-0.119,0.122-0.256,0.511-0.374,0.915c-0.751-0.206-1.609-0.43-2.508-0.65
			c0.067-0.403,0.128-0.849,0.155-1.236c0.049-0.718-1.955-1.005-2.233-0.724c-0.167,0.17-0.377,0.873-0.509,1.397
			c-0.055-0.012-0.109-0.025-0.166-0.035c-0.699-0.133-1.308-0.268-1.873-0.409c0.087-0.468,0.184-1.052,0.207-1.542
			c0.048-0.716-1.96-1.001-2.229-0.729c-0.184,0.192-0.405,0.994-0.533,1.526c-0.725-0.246-1.385-0.486-2.076-0.721
			c0.061-0.36,0.115-0.742,0.135-1.077c0.049-0.72-1.957-1.005-2.24-0.729c-0.128,0.132-0.277,0.583-0.395,1.025
			c-0.853-0.253-1.613-0.456-2.308-0.607c0.032-0.207,0.054-0.412,0.064-0.603c0.048-0.723-1.962-1.006-2.236-0.729
			c-0.129,0.132-0.278,0.575-0.403,1.014c-0.646-0.101-1.453-0.271-2.291-0.457c-0.01-0.329-0.029-0.708-0.077-1.032
			c-0.085-0.528-2.109-0.583-2.326-0.36c-0.114,0.117-0.18,0.507-0.216,0.862c-0.289-0.045-0.552-0.077-0.773-0.094
			c-1.269-0.086-2.079,0.352-2.413-1.53c-0.258-1.452,2.117-1.721,3.849-1.652c-0.104,0.369-0.207,0.802-0.132,0.961
			c0.119,0.285,2.037,0.906,2.307,0.438c0.238-0.401,0.455-0.932,0.589-1.272c0.686-0.061,1.491-0.167,2.337-0.263
			c-0.058,0.496-0.098,1.069-0.018,1.253c0.152,0.355,2.139,0.752,2.36,0.058c0.146-0.461,0.271-1.03,0.367-1.492
			c0.371,0.001,0.734,0.022,1.078,0.065c0.367,0.047,0.806,0.055,1.259,0.04c-0.062,0.52-0.113,1.143-0.024,1.341
			c0.154,0.351,2.139,0.754,2.36,0.06c0.167-0.521,0.312-1.184,0.409-1.67c0.768-0.117,1.54-0.248,2.278-0.381
			c-0.052,0.458-0.077,0.944-0.005,1.11c0.156,0.357,2.144,0.752,2.362,0.061c0.162-0.509,0.306-1.162,0.402-1.645
			c0.214-0.028,0.438-0.062,0.607-0.074c0.718-0.056,1.132-0.06,1.543-0.061c-0.053,0.499-0.098,1.068-0.015,1.251
			c0.151,0.362,2.139,0.753,2.361,0.065c0.134-0.429,0.251-0.946,0.344-1.389c0.278-0.018,0.565-0.035,0.914-0.06
			c0.624-0.046,1.169-0.041,1.698-0.021c-0.075,0.537-0.136,1.25-0.051,1.462c0.16,0.351,2.139,0.752,2.366,0.062
			c0.133-0.416,0.247-0.923,0.342-1.361c1.246,0.051,2.502-0.046,4.172-0.746c3.421-1.427,3.563-1.51,3.111-2.826
			c-0.446-1.316-0.9-0.541-2.799-2.489c-2.184-2.246-4.856-0.862-6.448-0.416c-0.955,0.272-3.297,0.03-8.021-0.348
			c-4.725-0.373-6.666-0.491-10.931-2.185c-3.09-1.226-8.085-8.212-15.687-8.613c-3.394-0.177-8.543,2.217-13.202,4.92
			c-1.246,0.24-2.362,0.454-3.059,0.604c-1.581-1.28-3.277-2.769-4.145-3.932c-1.904-2.54-3.581-3.85-5.45-6.787
			c-1.872-2.936,6.17-0.512,9.405-0.422c3.235,0.088,13.109-3.159,2.211-7.336c-10.897-4.177-2.373,4.916-13.451,0.385
			c-11.092-4.527-14.041,2.288-11.217,6.695c2.819,4.407,5.322,3.975,5.401,6.668c0.033,1.097-0.306,3.419-0.715,5.778
			c-0.854,0.058-1.713,0.164-2.615,0.331c-7.229,1.377-35.695,1.027-45.249,38.777c-0.352,1.387-0.688,2.709-1.015,4.005
			c0,0-3.882-3.78-14.363-7.929c-7.111-2.815-2.771,11.818-1.257,18.597c1.246,5.564,5.208,10.08,10.482,10.943
			c-1.692,14.007-1.949,11.276-0.149,22.511c1.573,9.807,7.331,33.107,30.686,48.166c22.276,14.37,47.777,11.392,65.521,3.704
			c10.417-4.517,18.039-9.463,24.438-15.691C519.989,171.592,501.587,175.874,482.479,171.917z M501.775,38.633
			c3.195,0.961,2.583,1.137,3.487,1.695c0.908,0.563,0.307,2.624-1.018,2.338c-1.322-0.284-3.721,0.271-6.246-1.44
			c0,0,0.005-0.045,0.023-0.12C498.162,40.478,498.937,37.778,501.775,38.633z"/>
	</g>
</g>
</svg>
