<?xml version="1.0" encoding="utf-8"?>
<!-- Generator: Adobe Illustrator 16.0.0, SVG Export Plug-In . SVG Version: 6.00 Build 0)  -->
<!DOCTYPE svg PUBLIC "-//W3C//DTD SVG 1.1//EN" "http://www.w3.org/Graphics/SVG/1.1/DTD/svg11.dtd">
<svg version="1.1" id="Layer_1" xmlns="http://www.w3.org/2000/svg" xmlns:xlink="http://www.w3.org/1999/xlink" x="0px" y="0px"
	 width="300px" height="83px" viewBox="0 0 300 83" enable-background="new 0 0 300 83" xml:space="preserve">
<g display="none">
	<g display="inline">
		<path fill="#282F44" d="M58.235,29.532c-2.779-11.214-13.498-15.284-22.33-15.284c-13.597,0-24.116,10.619-24.116,25.208
			c0,14.688,10.52,25.505,24.116,25.505c8.535,0,17.666-3.97,21.834-14.092H32.034V40.845H69.45
			c-0.496,5.856-0.993,9.726-1.886,12.009v-0.099C62.8,66.054,48.509,74.589,35.905,74.589c-19.452,0-34.14-14.688-34.14-35.132
			c0-20.544,14.985-35.232,34.14-35.232c13.298,0,29.376,6.848,33.049,25.308H58.235z"/>
		<path fill="#282F44" d="M112.229,53.647h-24.91C84.64,60,81.166,68.336,78.983,74.093H68.165L96.053,3.728h7.344l27.889,70.365
			h-10.719L112.229,53.647z M91.091,44.22h17.268l-8.536-24.513L91.091,44.22z"/>
		<path fill="#282F44" d="M141.611,74.391v-60.44h-21.04V4.622h52.005v9.329h-20.941v60.44H141.611z"/>
		<path fill="#282F44" d="M259.923,38.861h11.71c8.436,0,12.604-6.054,12.604-12.108c0-5.955-4.169-12.009-12.604-12.009H256.25
			v59.349h-9.924V4.622h25.307c15.085,0,22.628,11.115,22.628,22.131c0,9.826-6.054,19.154-17.963,21.237l21.934,26.103h-13.002
			l-25.307-30.468V38.861z"/>
	</g>
	<g display="inline">
		<path fill="#ECECEC" d="M208.488,72.798c-10.891-2.257-18.922-9.862-20.413-18.364l-0.118-0.653
			c-0.679-2.418,0.008-4.038,2.329-5.678c2.298,1.685,5.357,1.063,7.44-0.938c2.212-2.124,7.5-3.819,4.796-5.845
			c-1.745-1.303-5.304-1.655-6.68-1.811c0.354-0.238,0.786-0.502,1.484-1.048c2.251-1.772,5.06-4.301,7.05-7.558
			c1.212,0.618,2.668,1.393,3.172,1.807c0.922,0.753,0.095,1.511,0.875,3.687c0.779,2.175,3.96,2.986,5.368-2.109
			c1.409-5.098,2.288,0.335,3.769-4.6c1.481-4.933-2.32-2.36-3.165-1.208c-0.841,1.155-2.165,4.619-2.686,3.172
			c-0.521-1.443-0.527-2.386-0.903-3.737c-0.238-0.857-0.27-2.443-0.262-3.489c0.233-0.106,0.449-0.186,0.646-0.24
			c1.066-0.301,2.771-1.309,4.772-1.499c5.33,0.99,14.123,2.632,15.027,2.858c1.313,0.331,1.936-0.633,1.617-1.15
			c-0.317-0.519-1.03-0.654-1.03-0.654s-0.039-0.011-0.102-0.029c0.02-0.137,0.038-0.275,0.046-0.399
			c0.023-0.319-0.866-0.445-0.986-0.322c-0.053,0.054-0.112,0.225-0.165,0.403c-0.331-0.091-0.71-0.189-1.108-0.287
			c0.03-0.178,0.058-0.375,0.07-0.546c0.021-0.317-0.864-0.444-0.987-0.32c-0.073,0.076-0.166,0.386-0.225,0.617
			c-0.023-0.005-0.049-0.011-0.073-0.015c-0.31-0.059-0.578-0.118-0.827-0.18c0.037-0.207,0.081-0.465,0.091-0.682
			c0.021-0.316-0.865-0.442-0.985-0.322c-0.08,0.084-0.179,0.439-0.234,0.674c-0.319-0.108-0.612-0.215-0.917-0.318
			c0.027-0.159,0.051-0.328,0.059-0.476c0.022-0.318-0.863-0.443-0.988-0.322c-0.058,0.059-0.123,0.258-0.175,0.453
			c-0.376-0.112-0.713-0.202-1.02-0.269c0.015-0.091,0.023-0.182,0.028-0.266c0.022-0.319-0.866-0.444-0.986-0.322
			c-0.058,0.058-0.123,0.254-0.179,0.448c-0.285-0.044-0.642-0.12-1.012-0.201c-0.004-0.146-0.013-0.314-0.034-0.456
			c-0.037-0.234-0.933-0.258-1.028-0.159c-0.05,0.052-0.078,0.223-0.095,0.38c-0.128-0.02-0.243-0.034-0.342-0.042
			c-0.56-0.038-0.918,0.155-1.065-0.676c-0.114-0.641,0.936-0.76,1.7-0.73c-0.047,0.163-0.092,0.354-0.059,0.425
			c0.053,0.126,0.899,0.4,1.019,0.194c0.105-0.177,0.201-0.412,0.26-0.563c0.304-0.027,0.659-0.073,1.032-0.116
			c-0.025,0.219-0.043,0.472-0.007,0.553c0.067,0.157,0.944,0.333,1.042,0.026c0.064-0.204,0.119-0.455,0.162-0.659
			c0.164,0,0.324,0.01,0.477,0.029c0.161,0.021,0.355,0.024,0.556,0.017c-0.026,0.23-0.05,0.505-0.011,0.593
			c0.067,0.154,0.944,0.333,1.042,0.026c0.073-0.229,0.138-0.523,0.181-0.738c0.34-0.051,0.681-0.109,1.007-0.168
			c-0.023,0.202-0.034,0.417-0.002,0.49c0.069,0.158,0.946,0.333,1.043,0.027c0.072-0.225,0.135-0.513,0.178-0.726
			c0.095-0.013,0.194-0.028,0.269-0.033c0.316-0.025,0.499-0.027,0.682-0.027c-0.023,0.22-0.043,0.472-0.007,0.553
			c0.067,0.16,0.944,0.333,1.044,0.029c0.059-0.189,0.109-0.417,0.15-0.613c0.123-0.007,0.25-0.016,0.403-0.026
			c0.276-0.021,0.517-0.018,0.751-0.01c-0.033,0.237-0.06,0.552-0.022,0.646c0.07,0.154,0.944,0.332,1.045,0.027
			c0.059-0.184,0.108-0.408,0.151-0.602c0.551,0.023,1.104-0.021,1.843-0.33c1.511-0.63,1.573-0.667,1.374-1.248
			c-0.198-0.581-0.397-0.239-1.237-1.099c-0.964-0.992-2.144-0.381-2.847-0.184c-0.423,0.12-1.457,0.013-3.544-0.154
			c-2.086-0.165-2.943-0.217-4.827-0.965c-1.364-0.542-3.57-3.627-6.928-3.805c-1.499-0.078-3.773,0.979-5.832,2.173
			c-0.55,0.105-1.042,0.201-1.351,0.267c-0.698-0.565-1.447-1.223-1.83-1.737c-0.841-1.122-1.582-1.7-2.407-2.997
			c-0.827-1.297,2.725-0.226,4.153-0.187c1.43,0.039,5.791-1.395,0.978-3.24c-4.813-1.845-1.049,2.171-5.941,0.17
			c-4.899-2-6.201,1.01-4.954,2.957c1.245,1.947,2.351,1.755,2.386,2.945c0.015,0.485-0.135,1.51-0.315,2.552
			c-0.378,0.025-0.757,0.072-1.154,0.146c-3.193,0.608-15.767,0.454-19.985,17.126c-0.155,0.612-0.305,1.197-0.448,1.769
			c0,0-1.716-1.67-6.344-3.502c-3.142-1.243-1.224,5.22-0.556,8.213c0.551,2.458,2.301,4.452,4.63,4.833
			c-0.747,6.186-0.86,4.981-0.066,9.942c0.695,4.332,3.238,14.623,13.553,21.273c9.839,6.347,21.103,5.032,28.938,1.636
			c4.602-1.994,7.967-4.179,10.793-6.929C225.056,72.654,216.928,74.545,208.488,72.798z M217.012,13.931
			c1.411,0.424,1.141,0.501,1.54,0.748c0.401,0.249,0.136,1.159-0.449,1.033s-1.644,0.119-2.759-0.636c0,0,0.002-0.02,0.011-0.054
			C215.415,14.746,215.757,13.553,217.012,13.931z"/>
	</g>
</g>
<g>
	<g>
		<path fill="#282F44" d="M59.082,28.97c-2.76-11.137-13.405-15.179-22.176-15.179c-13.503,0-23.951,10.545-23.951,25.035
			c0,14.586,10.447,25.33,23.951,25.33c8.476,0,17.544-3.943,21.683-13.995H33.061v-9.955h37.158
			c-0.493,5.816-0.985,9.659-1.873,11.926v-0.098c-4.73,13.207-18.924,21.683-31.441,21.683C17.587,73.717,3,59.13,3,38.827
			c0-20.403,14.882-34.99,33.905-34.99c13.207,0,29.174,6.801,32.821,25.134H59.082z"/>
		<path fill="#282F44" d="M112.706,52.921h-24.74c-2.661,6.308-6.111,14.587-8.278,20.303H68.943L96.64,3.343h7.293l27.697,69.88
			h-10.645L112.706,52.921z M91.711,43.557h17.15l-8.477-24.344L91.711,43.557z"/>
		<path fill="#282F44" d="M141.885,73.52V13.496H120.99V4.231h51.648v9.265h-20.797V73.52H141.885z"/>
		<path fill="#282F44" d="M259.385,38.235h11.629c8.379,0,12.518-6.012,12.518-12.024c0-5.914-4.139-11.926-12.518-11.926h-15.277
			v58.939h-9.855V4.231h25.133c14.98,0,22.473,11.039,22.473,21.979c0,9.758-6.012,19.023-17.84,21.092l21.783,25.921h-12.912
			l-25.133-30.258V38.235z"/>
	</g>
	<g>
		<path fill="#282F44" d="M208.303,71.938c-10.816-2.241-18.793-9.795-20.271-18.236l-0.117-0.65c-0.676-2.4,0.006-4.01,2.313-5.64
			c2.281,1.674,5.32,1.057,7.389-0.931c2.197-2.108,7.447-3.793,4.762-5.804c-1.732-1.294-5.266-1.644-6.633-1.799
			c0.352-0.235,0.781-0.498,1.475-1.04c2.234-1.76,5.023-4.271,7-7.506c1.203,0.613,2.65,1.383,3.15,1.795
			c0.916,0.748,0.094,1.5,0.869,3.662c0.775,2.16,3.934,2.965,5.332-2.095c1.398-5.063,2.271,0.333,3.742-4.568
			c1.471-4.899-2.305-2.344-3.143-1.199c-0.836,1.147-2.15,4.587-2.668,3.15c-0.518-1.433-0.523-2.37-0.896-3.711
			c-0.236-0.852-0.268-2.426-0.26-3.466c0.232-0.104,0.445-0.185,0.643-0.238c1.057-0.298,2.752-1.299,4.738-1.489
			c5.293,0.983,14.025,2.614,14.924,2.839c1.303,0.328,1.924-0.629,1.607-1.142c-0.316-0.516-1.023-0.65-1.023-0.65
			s-0.039-0.01-0.102-0.029c0.02-0.135,0.037-0.273,0.047-0.396c0.021-0.317-0.861-0.442-0.98-0.32
			c-0.053,0.054-0.111,0.224-0.164,0.401c-0.328-0.091-0.705-0.188-1.1-0.286c0.029-0.176,0.055-0.372,0.068-0.542
			c0.021-0.314-0.859-0.441-0.98-0.317c-0.072,0.075-0.166,0.383-0.223,0.612c-0.023-0.005-0.049-0.011-0.072-0.015
			c-0.309-0.059-0.574-0.118-0.822-0.179c0.037-0.206,0.08-0.462,0.09-0.677c0.021-0.314-0.859-0.439-0.979-0.319
			c-0.078,0.084-0.176,0.436-0.232,0.669c-0.318-0.108-0.607-0.213-0.91-0.316c0.027-0.158,0.051-0.326,0.059-0.473
			c0.021-0.315-0.859-0.44-0.982-0.319c-0.057,0.058-0.121,0.256-0.174,0.451c-0.373-0.111-0.707-0.201-1.012-0.268
			c0.014-0.09,0.023-0.18,0.027-0.264c0.021-0.317-0.859-0.441-0.98-0.32c-0.057,0.058-0.121,0.252-0.176,0.445
			c-0.283-0.044-0.637-0.119-1.006-0.2c-0.004-0.145-0.012-0.312-0.033-0.453c-0.037-0.232-0.926-0.256-1.021-0.158
			c-0.049,0.051-0.078,0.222-0.094,0.378c-0.127-0.02-0.242-0.034-0.34-0.041c-0.557-0.038-0.91,0.154-1.059-0.671
			c-0.113-0.637,0.93-0.755,1.688-0.725c-0.045,0.162-0.09,0.352-0.057,0.422c0.053,0.125,0.893,0.397,1.012,0.192
			c0.105-0.177,0.201-0.41,0.258-0.559c0.301-0.026,0.654-0.073,1.025-0.115c-0.025,0.217-0.043,0.469-0.006,0.55
			c0.066,0.156,0.938,0.33,1.033,0.025c0.064-0.202,0.119-0.452,0.162-0.654c0.162,0,0.32,0.009,0.473,0.028
			c0.16,0.021,0.354,0.025,0.553,0.018c-0.027,0.229-0.051,0.501-0.012,0.588c0.066,0.153,0.938,0.331,1.035,0.026
			c0.072-0.229,0.137-0.52,0.18-0.732c0.338-0.052,0.676-0.109,1-0.167c-0.023,0.201-0.035,0.414-0.002,0.487
			c0.068,0.157,0.939,0.331,1.035,0.027c0.072-0.224,0.135-0.509,0.178-0.721c0.092-0.012,0.191-0.027,0.266-0.033
			c0.314-0.024,0.496-0.026,0.678-0.027c-0.023,0.219-0.043,0.469-0.008,0.549c0.066,0.159,0.938,0.331,1.037,0.029
			c0.059-0.188,0.109-0.416,0.15-0.61c0.121-0.007,0.248-0.015,0.4-0.026c0.273-0.02,0.512-0.018,0.744-0.009
			c-0.031,0.236-0.059,0.548-0.021,0.642c0.07,0.153,0.938,0.329,1.039,0.026c0.057-0.182,0.107-0.404,0.148-0.597
			c0.547,0.023,1.098-0.02,1.83-0.327c1.502-0.626,1.563-0.662,1.365-1.239s-0.395-0.237-1.229-1.091
			c-0.959-0.986-2.129-0.379-2.828-0.183c-0.42,0.119-1.447,0.013-3.518-0.153c-2.074-0.164-2.924-0.216-4.795-0.958
			c-1.355-0.538-3.547-3.602-6.881-3.778c-1.488-0.078-3.748,0.972-5.791,2.158c-0.547,0.105-1.035,0.199-1.342,0.265
			c-0.693-0.561-1.438-1.214-1.818-1.725c-0.834-1.114-1.57-1.688-2.391-2.977c-0.82-1.288,2.707-0.224,4.125-0.185
			c1.42,0.039,5.75-1.385,0.971-3.218c-4.779-1.832-1.041,2.156-5.9,0.169c-4.865-1.986-6.158,1.003-4.92,2.936
			c1.236,1.933,2.334,1.744,2.371,2.925c0.012,0.481-0.135,1.5-0.314,2.534c-0.375,0.025-0.752,0.072-1.148,0.146
			c-3.17,0.604-15.656,0.45-19.848,17.009c-0.152,0.608-0.301,1.188-0.443,1.757c0,0-1.705-1.659-6.301-3.478
			c-3.119-1.234-1.217,5.184-0.553,8.157c0.549,2.441,2.287,4.421,4.6,4.8c-0.742,6.144-0.855,4.946-0.066,9.874
			c0.689,4.302,3.217,14.522,13.461,21.127c9.77,6.304,20.957,4.998,28.738,1.625c4.57-1.98,7.912-4.15,10.719-6.883
			C224.756,71.797,216.686,73.675,208.303,71.938z M216.768,13.477c1.402,0.421,1.133,0.498,1.529,0.743
			c0.398,0.247,0.135,1.151-0.447,1.026c-0.578-0.125-1.631,0.118-2.738-0.632c0,0,0.002-0.019,0.01-0.053
			C215.182,14.285,215.521,13.101,216.768,13.477z"/>
	</g>
</g>
</svg>
